HIERARCHY
ROOT Hips
{
 OFFSET 0.000000 0.000000 0.000000
 CHANNELS 6 Xposition Yposition Zposition Yrotation Xrotation Zrotation
 JOINT Chest
 {
  OFFSET 0.000000 9.585900 0.002600
  CHANNELS 3 Yrotation Xrotation Zrotation
  JOINT Chest2
  {
   OFFSET 0.000000 9.601200 -0.005300
   CHANNELS 3 Yrotation Xrotation Zrotation
   JOINT Chest3
   {
    OFFSET 0.000000 9.561800 0.000000
    CHANNELS 3 Yrotation Xrotation Zrotation
    JOINT Chest4
    {
     OFFSET 0.000000 9.552100 0.000000
     CHANNELS 3 Yrotation Xrotation Zrotation
     JOINT Neck
     {
      OFFSET 0.000000 14.453000 0.000000
      CHANNELS 3 Yrotation Xrotation Zrotation
      JOINT Head
      {
       OFFSET 0.000000 8.936500 -0.011300
       CHANNELS 3 Yrotation Xrotation Zrotation
       End Site
       {
        OFFSET 0.000000 17.073600 -0.006000
       }
      }
     }
     JOINT RightCollar
     {
      OFFSET -2.921100 9.558500 0.000000
      CHANNELS 3 Yrotation Xrotation Zrotation
      JOINT RightShoulder
      {
       OFFSET -13.519700 0.000000 0.000000
       CHANNELS 3 Yrotation Xrotation Zrotation
       JOINT RightElbow
       {
        OFFSET 0.000000 -29.696600 0.000000
        CHANNELS 3 Yrotation Xrotation Zrotation
        JOINT RightWrist
        {
         OFFSET 0.000000 -24.004700 0.000000
         CHANNELS 3 Yrotation Xrotation Zrotation
         End Site
         {
          OFFSET 0.000000 -17.728500 0.000000
         }
        }
       }
      }
     }
     JOINT LeftCollar
     {
      OFFSET 2.921100 9.558500 0.000000
      CHANNELS 3 Yrotation Xrotation Zrotation
      JOINT LeftShoulder
      {
       OFFSET 13.519700 0.000000 0.000000
       CHANNELS 3 Yrotation Xrotation Zrotation
       JOINT LeftElbow
       {
        OFFSET 0.000000 -29.696600 0.000000
        CHANNELS 3 Yrotation Xrotation Zrotation
        JOINT LeftWrist
        {
         OFFSET 0.000000 -24.004700 0.000000
         CHANNELS 3 Yrotation Xrotation Zrotation
         End Site
         {
          OFFSET 0.000000 -17.728500 0.000000
         }
        }
       }
      }
     }
    }
   }
  }
 }
 JOINT RightHip
 {
  OFFSET -7.771700 -0.012900 -0.001300
  CHANNELS 3 Yrotation Xrotation Zrotation
  JOINT RightKnee
  {
   OFFSET 0.000000 -40.869800 0.001200
   CHANNELS 3 Yrotation Xrotation Zrotation
   JOINT RightAnkle
   {
    OFFSET 0.000000 -39.717900 0.002100
    CHANNELS 3 Yrotation Xrotation Zrotation
    JOINT RightToe
    {
     OFFSET 0.000000 -4.965400 11.033500
     CHANNELS 3 Yrotation Xrotation Zrotation
     End Site
     {
      OFFSET 0.000000 -1.423100 5.872300
     }
    }
   }
  }
 }
 JOINT LeftHip
 {
  OFFSET 7.771700 -0.012900 -0.001300
  CHANNELS 3 Yrotation Xrotation Zrotation
  JOINT LeftKnee
  {
   OFFSET 0.000000 -40.869800 0.001200
   CHANNELS 3 Yrotation Xrotation Zrotation
   JOINT LeftAnkle
   {
    OFFSET 0.000000 -39.717900 0.002100
    CHANNELS 3 Yrotation Xrotation Zrotation
    JOINT LeftToe
    {
     OFFSET 0.000000 -4.965400 11.033500
     CHANNELS 3 Yrotation Xrotation Zrotation
     End Site
     {
      OFFSET 0.000000 -1.423100 5.872300
     }
    }
   }
  }
 }
}
MOTION
Frames: 5
Frame Time: 0.008333
0.000000 85.388000 0.000000 0.000000 -5.767877 0.000000 0.000000 11.653817 0.000000 0.000000 -5.885947 0.000000 0.000000 -0.000000 0.000000 0.000000 -0.000000 0.000000 0.000000 12.528835 0.000000 0.000000 0.711642 0.000000 0.000000 -0.000000 0.000000 0.000000 0.000000 -90.000000 0.000000 -2.309062 0.000000 0.000000 2.309062 0.000000 0.000000 -0.000000 0.000000 0.000000 -0.000000 90.000000 0.000000 -2.309062 0.000000 0.000000 2.309062 0.000000 0.000000 8.520406 0.000000 0.000000 1.905762 0.000000 -0.000000 -4.658285 0.000000 0.000000 -0.000000 0.000000 0.000000 8.520406 0.000000 0.000000 1.905762 0.000000 -0.000000 -4.658285 0.000000 0.000000 -0.000000 0.000000
-94.255324 57.331613 -0.032278 162.872777 -13.773193 0.447552 -0.664938 7.152473 2.277786 -0.021704 0.309153 0.081180 -0.037755 0.541940 0.142119 -0.373973 6.708328 1.740278 0.055029 24.934860 -2.569086 0.703794 10.546536 -4.613402 6.779228 -2.196325 -8.533685 4.592089 -9.003078 -8.185044 -135.398024 -76.581303 153.694524 -4.831981 2.974185 -25.200235 -3.470543 -3.436501 4.786087 -8.784892 -19.972507 8.779908 -171.937432 -52.625600 155.622568 -2.310659 -3.000007 22.944834 -2.197572 -59.392263 0.082212 -37.386131 71.835218 -41.172442 -6.336680 -5.347962 2.711786 0.789994 0.440174 0.038675 0.492412 -60.591895 13.372724 37.836503 62.668467 30.037025 -17.604914 -7.874989 3.728150 -1.086299 -0.584224 -0.580810
-94.233911 57.334671 -0.038354 162.935512 -13.714865 0.414237 -0.611805 7.193430 2.244249 -0.019284 0.308752 0.078224 -0.033574 0.541341 0.137000 -0.325958 6.713204 1.682396 -0.268108 24.886374 -2.533579 0.118566 10.444004 -4.473930 6.663979 -2.246231 -8.542373 4.553258 -8.792687 -8.205453 -135.200617 -76.554376 153.629896 -4.823247 2.996919 -25.127268 -3.406154 -3.428531 4.791523 -8.764394 -19.692236 8.695104 -171.584782 -52.934066 155.238606 -2.324621 -2.893577 22.766791 -2.533974 -59.447645 0.169111 -37.249148 71.925286 -40.916541 -6.254590 -5.440337 2.540514 0.784478 0.481596 0.141917 0.427769 -60.650546 13.400416 37.849813 62.670905 30.048013 -17.580323 -7.914270 3.780458 -1.028475 -0.598184 -0.567915
-94.213883 57.339372 -0.051811 162.966177 -13.678557 0.423275 -0.539130 7.258117 2.174653 -0.017001 0.308649 0.075281 -0.029590 0.541270 0.131981 -0.279944 6.720886 1.624496 -0.594276 24.833758 -2.497125 -0.472431 10.335128 -4.331622 6.552758 -2.297781 -8.544982 4.509317 -8.584550 -8.229487 -135.087457 -76.522347 153.650132 -4.806524 3.023512 -25.051996 -3.340997 -3.420611 4.789964 -8.718702 -19.401314 8.621918 -171.271281 -53.204689 154.892550 -2.324429 -2.816392 22.605580 -2.786288 -59.478702 0.194093 -37.117153 72.010169 -40.669369 -6.180393 -5.541925 2.367163 0.803911 0.510949 0.186870 0.441525 -60.686604 13.367226 38.022828 62.658825 30.181305 -17.576733 -7.946714 3.855966 -1.055226 -0.617161 -0.583733
-94.189818 57.342501 -0.057986 163.020776 -13.594746 0.400221 -0.494746 7.276222 2.130275 -0.014845 0.308802 0.072409 -0.025721 0.541564 0.126972 -0.235415 6.730540 1.566436 -0.921295 24.777786 -2.458007 -1.065741 10.221443 -4.183990 6.446380 -2.350168 -8.539087 4.459210 -8.377937 -8.254646 -135.059783 -76.487453 153.754381 -4.777723 3.057229 -24.977829 -3.271550 -3.412557 4.784272 -8.653907 -19.099075 8.555922 -171.013789 -53.443942 154.595451 -2.309236 -2.761339 22.464325 -3.118584 -59.554602 0.284393 -36.993209 72.085995 -40.432006 -6.092721 -5.631718 2.226592 0.820210 0.531671 0.196044 0.383660 -60.770677 13.384401 38.127383 62.646420 30.264997 -17.551768 -7.986967 3.965866 -1.080814 -0.617498 -0.640309
